<?xml version="1.0" encoding="utf-8"?>
<!-- Generator: Adobe Illustrator 16.0.0, SVG Export Plug-In . SVG Version: 6.00 Build 0)  -->
<!DOCTYPE svg PUBLIC "-//W3C//DTD SVG 1.1//EN" "http://www.w3.org/Graphics/SVG/1.1/DTD/svg11.dtd">
<svg version="1.1" id="Layer_1" xmlns="http://www.w3.org/2000/svg" xmlns:xlink="http://www.w3.org/1999/xlink" x="0px" y="0px"
	 width="564px" height="196px" viewBox="-0.5 -0.5 564 196" enable-background="new -0.5 -0.5 564 196" xml:space="preserve">
<path fill="#EB3439" d="M436.512,99.018c-11.623,0.002-23.252-0.209-34.867,0.069c-8.925,0.213-15.902-3.235-21.733-9.708
	c-14.254-15.824-12.017-43.061,4.571-55.89c4.834-3.739,10.267-5.629,16.291-5.645c24.371-0.063,48.742-0.083,73.113,0.003
	c8.092,0.029,14.56,3.688,19.938,9.611c14.208,15.646,12.334,42.348-4.015,55.712c-4.687,3.83-10.035,5.891-16.179,5.861
	C461.259,98.973,448.886,99.014,436.512,99.018z M436.82,83.412c11.24,0,22.482,0.088,33.724-0.027
	c9.424-0.097,15.606-5.111,17.253-14.401c2.613-14.744-4.023-26.094-20.42-25.626c-20.717,0.591-41.464,0.142-62.198,0.143
	c-11.851,0-18.266,5.423-19.539,17.085c-1.31,11.969,4.355,23.559,19.707,22.92C415.82,83.069,426.328,83.422,436.82,83.412z"/>
<path fill="#848587" d="M30.812,172.332c-0.005,9.384-8.074,17.242-19.435,19.003c-1.082,0.167-2.215,0.112-3.878,0.187
	c0-1.375,0-2.367,0-3.357c0-46.492-0.007-92.983,0.006-139.475c0.003-10.406,6.777-18.046,18.12-20.642
	c1.598-0.365,3.61-0.476,5.188-0.448"/>
<path fill="#EB3439" d="M142.844,99.018c-11.114,0-22.229,0.002-33.343,0c-14.155,0-23.742-6.391-29.289-19.467
	c-1.965-4.634-3.216-9.452-3.294-14.467c-0.151-9.738-0.175-19.479-0.081-29.218c0.037-3.861,1.941-6.628,5.883-7.657
	c3.466-0.905,6.088,0.441,8.145,3.144c1.186,1.558,1.394,3.398,1.388,5.312c-0.024,9.242-0.064,18.483,0.017,27.724
	c0.044,4.961,1.246,9.586,4.568,13.497c3.897,4.587,9.097,5.883,14.762,5.893c21.105,0.036,42.211,0.089,63.316-0.015
	c12.281-0.06,18.989-6.543,19.373-18.841c0.292-9.357,0.04-18.73,0.166-28.095c0.089-6.667,4.956-10.459,10.467-8.337
	c2.956,1.139,4.954,3.405,4.918,6.449c-0.141,11.967,1.069,23.985-0.689,35.896c-2.035,13.774-12.094,25.069-24.391,27.76
	c-1.684,0.367-3.463,0.399-5.199,0.403C167.322,99.031,155.083,99.018,142.844,99.018z"/>
<path fill="#EB3439" d="M290.958,27.816c9.621,0,19.241,0,28.861,0c16.956,0,28.614,9.31,32.604,25.962
	c1.562,6.516,1.296,13.132,1.305,19.739c0.006,5.622,0.084,11.246-0.021,16.866c-0.099,5.322-3.187,8.629-7.796,8.621
	c-4.617-0.007-7.628-3.335-7.665-8.684c-0.063-9.12-0.063-18.241-0.039-27.361c0.035-12.855-8.451-19.899-19.412-19.632
	c-19.479,0.473-38.979,0.127-58.469,0.135c-10.615,0.004-17.912,6.994-18.109,17.644c-0.175,9.492-0.072,18.99-0.042,28.485
	c0.007,2.038-0.194,4.02-1.3,5.744c-1.867,2.91-4.625,4.215-8.015,3.554c-3.568-0.695-6.136-3.2-6.132-6.643
	c0.012-13.07-1.906-26.316,1.426-39.16c2.919-11.252,9.409-20.011,20.983-23.979c2.853-0.978,5.825-1.293,8.834-1.292
	C268.969,27.819,279.964,27.816,290.958,27.816z"/>
<g>
	<path fill="#383637" d="M411.605,144.105c5.6,0,11.041-0.114,16.475,0.035c4.577,0.125,9.066,0.914,13.324,2.746
		c4.023,1.731,7.227,4.438,9.731,8.006c0.987,1.406,1.186,2.854-0.274,3.969c-1.313,1-2.799,0.746-3.788-0.535
		c-4.642-6.004-10.89-8.627-18.289-8.756c-5.669-0.098-11.34-0.02-17.335-0.02c0,2.16-0.021,4.34,0.005,6.518
		c0.022,1.943-0.72,3.277-2.815,3.287c-2.062,0.011-2.646-1.459-2.658-3.195c-0.034-4.816-0.058-9.635,0.003-14.452
		c0.06-4.744,3.727-7.833,8.011-7.748c9.947,0.197,19.902,0.022,29.852,0.089c4.52,0.03,7.977,3.319,8.032,7.285
		c0.024,1.704-0.722,2.834-2.321,3.027c-1.571,0.188-2.78-0.635-2.972-2.344c-0.237-2.145-1.545-2.666-3.449-2.66
		c-9.241,0.031-18.48,0.015-27.722,0.015C411.35,139.372,411.216,139.525,411.605,144.105z"/>
	<path fill="#383637" d="M206.958,134.05c5.214,0,10.43-0.069,15.642,0.022c3.667,0.066,6.417,2.342,7.416,5.846
		c0.656,2.301-0.008,3.997-1.859,4.369c-2.099,0.423-3.047-0.842-3.366-2.701c-0.282-1.643-1.325-2.212-2.843-2.213
		c-9.955-0.001-19.909,0.011-29.863-0.008c-2.11-0.004-2.316,1.294-2.408,2.979c-0.104,1.906,1.05,1.694,2.271,1.721
		c6.388,0.131,12.79-0.381,19.163,0.513c7.479,1.045,13.889,3.905,18.351,10.315c1.008,1.447,1.217,2.795-0.265,3.924
		c-1.436,1.093-2.9,0.744-3.946-0.627c-5.058-6.625-12.109-8.66-19.997-8.768c-4.582-0.063-9.166,0.023-13.746-0.083
		c-1.555-0.036-1.874,0.599-1.816,1.958c0.078,1.813,0.054,3.635-0.023,5.448c-0.071,1.675-0.992,2.663-2.711,2.623
		c-1.697-0.039-2.629-1.05-2.64-2.71c-0.035-5.295-0.136-10.592,0.051-15.879c0.136-3.846,3.293-6.684,7.183-6.735
		c5.134-0.067,10.271-0.017,15.405-0.017C206.958,134.035,206.958,134.042,206.958,134.05z"/>
	<path fill="#383637" d="M484.986,159.419c-4.979,0.003-9.954,0.005-14.932,0.002c-6.126-0.004-9.363-2.438-11.24-8.344
		c-1.44-4.529-0.725-8.728,1.934-12.575c1.991-2.884,4.693-4.518,8.361-4.498c10.901,0.059,21.805,0.012,32.705,0.025
		c2.471,0.003,3.703,0.945,3.545,2.755c-0.188,2.104-1.62,2.606-3.508,2.603c-10.586-0.029-21.172-0.039-31.758,0.002
		c-3.648,0.014-6.017,2.123-6.48,5.565c-0.628,4.653,0.91,7.801,4.396,8.793c0.89,0.253,1.865,0.282,2.802,0.284
		c10.191,0.019,20.383,0.007,30.573,0.02c1.007,0.002,2.054-0.171,2.942,0.578c0.952,0.803,1.313,1.807,0.938,2.957
		c-0.455,1.393-1.582,1.84-2.977,1.836C496.521,159.406,490.753,159.416,484.986,159.419z"/>
	<path fill="#383637" d="M154.209,159.434c-3.711,0-7.423,0-11.135,0c-7.651-0.002-12.506-4.615-12.794-12.3
		c-0.125-3.312-0.038-6.633-0.016-9.948c0.014-1.816,0.788-3.082,2.765-3.11c2.046-0.031,2.723,1.362,2.762,3.112
		c0.078,3.474-0.016,6.951,0.104,10.422c0.141,4.054,2.588,6.406,6.605,6.424c7.818,0.031,15.636,0.031,23.454-0.002
		c3.769-0.016,5.962-1.965,6.566-5.723c0.581-3.611,0.174-7.25,0.255-10.875c0.042-1.867,0.443-3.389,2.674-3.361
		c2.154,0.025,2.785,1.46,2.693,3.359c-0.201,4.166,0.533,8.375-0.436,12.498c-1.499,6.387-5.445,9.494-11.89,9.502
		C161.949,159.438,158.079,159.434,154.209,159.434z"/>
	<path fill="#383637" d="M375.66,159.422c-3.947,0-7.895,0.006-11.842-0.002c-6.325-0.01-11.097-4.242-11.581-10.648
		c-0.304-4.004-0.144-8.047-0.141-12.07c0.001-1.705,0.923-2.662,2.652-2.639c1.707,0.023,2.621,1.006,2.649,2.676
		c0.052,3.158,0.014,6.316,0.027,9.476c0.026,5.404,2.416,7.825,7.729,7.828c7.342,0.006,14.684,0.013,22.026-0.003
		c4.622-0.01,7.142-2.497,7.205-7.141c0.043-3.156,0.024-6.315,0.006-9.475c-0.01-1.891,0.592-3.32,2.734-3.354
		c2.233-0.031,2.713,1.525,2.696,3.361c-0.031,3.631,0.091,7.272-0.181,10.887c-0.521,6.937-5.188,11.096-12.143,11.102
		C383.556,159.425,379.607,159.422,375.66,159.422z"/>
	<path fill="#383637" d="M259.029,139.372c-3.161,0-6.322-0.004-9.483,0.001c-5.204,0.009-7.641,2.367-7.765,7.633
		c-0.073,3.08-0.04,6.164-0.007,9.245c0.02,1.862-0.656,3.14-2.679,3.119c-2.008-0.021-2.739-1.31-2.649-3.156
		c0.212-4.401-0.587-8.856,0.514-13.209c1.495-5.907,5.515-8.976,11.595-8.979c7.112-0.008,14.225-0.004,21.337-0.002
		c6.84,0.004,11.641,4.363,12.049,11.217c0.226,3.781,0.073,7.584,0.069,11.377c0,1.695-0.86,2.708-2.571,2.752
		c-1.845,0.048-2.682-0.982-2.746-2.809c-0.14-3.86,0.39-7.744-0.297-11.584c-0.672-3.762-2.858-5.563-6.7-5.597
		C266.143,139.348,262.585,139.372,259.029,139.372z"/>
	<path fill="#383637" d="M322.013,139.372c-5.972,0-11.573,0-17.176,0c-0.71,0-1.42,0.002-2.131-0.011
		c-1.81-0.028-2.837-0.95-2.815-2.76c0.021-1.711,1.043-2.558,2.741-2.565c2.291-0.013,4.579-0.013,6.869-0.015
		c10.58,0,21.159,0,31.738,0.002c0.631,0,1.263,0.004,1.894,0.017c1.738,0.035,2.717,1.081,2.697,2.655
		c-0.02,1.561-1.007,2.641-2.73,2.654c-3.553,0.027-7.104,0.004-10.658,0.025c-4.32,0.025-6.737,2.368-6.823,6.699
		c-0.063,3.234,0.002,6.474-0.02,9.711c-0.016,2.406-0.966,3.652-2.784,3.582c-2.316-0.09-2.83-1.704-2.77-3.605
		C320.217,150.372,319.211,144.855,322.013,139.372z"/>
	<path fill="#383637" d="M103.903,134.021c5.449,0,10.896-0.006,16.346,0.004c2.815,0.006,3.872,0.73,3.888,2.623
		c0.018,1.906-1.102,2.719-3.82,2.721c-10.187,0.007-20.374-0.002-30.56,0.005c-5.078,0.004-7.352,2.25-7.41,7.347
		c-0.036,3.158-0.024,6.317-0.002,9.477c0.014,1.842-0.676,3.123-2.661,3.172c-2.026,0.049-2.782-1.236-2.699-3.084
		c0.208-4.557-0.661-9.178,0.605-13.661c1.634-5.778,5.451-8.59,11.386-8.599C93.953,134.018,98.928,134.021,103.903,134.021z"/>
	<path fill="#383637" d="M104.801,149.371c-4.81,0-9.62-0.029-14.429,0.016c-1.88,0.018-3.332-0.416-3.442-2.605
		c-0.093-1.854,1.051-2.723,3.548-2.727c9.619-0.009,19.238,0.016,28.857-0.02c1.89-0.006,3.325,0.438,3.441,2.615
		c0.099,1.861-1.022,2.707-3.546,2.716C114.421,149.382,109.611,149.371,104.801,149.371z"/>
	<path fill="#383637" d="M485.704,144.053c4.581,0,9.164,0.047,13.745-0.023c1.949-0.028,3.431,0.646,3.458,2.648
		c0.026,2.004-1.421,2.723-3.384,2.713c-9.322-0.043-18.646-0.049-27.965,0.006c-1.955,0.011-3.428-0.631-3.446-2.645
		c-0.02-1.99,1.382-2.754,3.372-2.725C476.223,144.102,480.964,144.053,485.704,144.053z"/>
	<path fill="#383637" d="M288.18,146.607c0-3.078,0.006-6.158-0.002-9.237c-0.004-1.897,0.646-3.287,2.788-3.304
		c2.076-0.018,2.677,1.425,2.688,3.158c0.036,6.317,0.034,12.635,0.002,18.953c-0.009,1.733-0.604,3.188-2.665,3.189
		c-2.128,0.004-2.825-1.374-2.824-3.283c0.001-3.159,0-6.316,0-9.477C288.17,146.607,288.175,146.607,288.18,146.607z"/>
</g>
<path fill="none" d="M436.82,83.417c-10.492,0.005-21-0.348-31.475,0.089c-15.352,0.639-21.017-10.951-19.707-22.92
	c1.273-11.662,7.688-17.085,19.539-17.085c20.734-0.001,41.481,0.448,62.198-0.143c16.396-0.468,23.033,10.882,20.42,25.626
	c-1.646,9.29-7.829,14.304-17.253,14.401C459.304,83.5,448.063,83.412,436.82,83.417z"/>
<g>
	<path fill="#848587" d="M488.063,190.203c-0.683,0-1.022-0.352-1.022-1.057v-8.641h-3.12c-0.587,0-0.88-0.287-0.88-0.863
		c0-0.564,0.293-0.849,0.88-0.849h8.288c0.586,0,0.88,0.283,0.88,0.849c0,0.575-0.294,0.863-0.88,0.863h-3.12v8.641
		C489.088,189.852,488.746,190.203,488.063,190.203z"/>
	<path fill="#848587" d="M495.216,190.203c-0.619,0-0.929-0.32-0.929-0.96v-9.616c0-0.641,0.32-0.96,0.96-0.96
		c0.267,0,0.478,0.051,0.633,0.151c0.154,0.103,0.296,0.274,0.424,0.521l3.695,6.832l3.696-6.832
		c0.128-0.245,0.267-0.418,0.416-0.521c0.148-0.102,0.356-0.151,0.624-0.151c0.618,0,0.928,0.319,0.928,0.96v9.616
		c0,0.64-0.31,0.96-0.928,0.96c-0.619,0-0.929-0.32-0.929-0.96v-6.769l-3.008,5.487c-0.107,0.183-0.219,0.315-0.336,0.399
		c-0.118,0.086-0.277,0.129-0.48,0.129c-0.202,0-0.367-0.045-0.495-0.137c-0.128-0.09-0.24-0.222-0.337-0.393l-3.008-5.456v6.736
		C496.145,189.883,495.834,190.203,495.216,190.203z"/>
</g>
</svg>
